# xmcd
#
# Track frame offsets:
#	150
#	122215
#	159455
#	212841
#
# Disc length: 3835 seconds
#
# Revision: 0
# Processed by: cddbd v1.5.1PL2 Copyright (c) Steve Scherf et al.
# Submitted via: EasyCDDAExtractor 8.0.2.1
#
DISCID=330ef904
DTITLE=H.Ch.Andersen - Cisarovy nove saty
DYEAR=1900
DGENRE=Acid Punk
TTITLE0=Osklive kacatko
TTITLE1=O hloupem honzovi
TTITLE2=Cisarovy nove saty
TTITLE3=V kachnim dvorku
EXTD=
EXTT0=
EXTT1=
EXTT2=
EXTT3=
PLAYORDER=
